<svg width="1200" height="630" viewBox="0 0 1200 630" fill="none" xmlns="http://www.w3.org/2000/svg">
  <title>Exitpress Open Graph image</title>
  <defs>
    <radialGradient id="og-base-left" cx="0" cy="0" r="1" gradientUnits="userSpaceOnUse" gradientTransform="translate(238 112) rotate(58) scale(494 650)">
      <stop stop-color="#211A55" />
      <stop offset="1" stop-color="#0C0A12" stop-opacity="0" />
    </radialGradient>
    <radialGradient id="og-base-right" cx="0" cy="0" r="1" gradientUnits="userSpaceOnUse" gradientTransform="translate(966 446) rotate(132) scale(544 664)">
      <stop stop-color="#3E1630" stop-opacity="0.82" />
      <stop offset="1" stop-color="#0C0A12" stop-opacity="0" />
    </radialGradient>
    <linearGradient id="og-wave" x1="0" y1="0" x2="1200" y2="0" gradientUnits="userSpaceOnUse">
      <stop stop-color="#76A7FF" />
      <stop offset="0.25" stop-color="#745DFF" />
      <stop offset="0.55" stop-color="#A845FF" />
      <stop offset="0.78" stop-color="#FF5FB8" />
      <stop offset="1" stop-color="#C8B9FF" />
    </linearGradient>
    <filter id="og-blur" x="-240" y="-240" width="1680" height="1110" filterUnits="userSpaceOnUse" color-interpolation-filters="sRGB">
      <feGaussianBlur stdDeviation="48" />
    </filter>
    <filter id="og-soft" x="-260" y="-260" width="1720" height="1150" filterUnits="userSpaceOnUse" color-interpolation-filters="sRGB">
      <feGaussianBlur stdDeviation="78" />
    </filter>
    <filter id="og-grain" x="0" y="0" width="100%" height="100%">
      <feTurbulence type="fractalNoise" baseFrequency="0.62" numOctaves="2" stitchTiles="stitch" result="noise" />
      <feColorMatrix in="noise" type="matrix" values="1 0 0 0 0 1 0 0 0 0 1 0 0 0 0 0 0 0 0.028 0" />
    </filter>
    <filter id="og-logo-shadow" x="0" y="0" width="650" height="630" filterUnits="userSpaceOnUse" color-interpolation-filters="sRGB">
      <feDropShadow dx="0" dy="28" stdDeviation="28" flood-color="#000000" flood-opacity="0.38" />
    </filter>
  </defs>

  <rect width="1200" height="630" fill="#0C0A12" />
  <rect width="1200" height="630" fill="url(#og-base-left)" />
  <rect width="1200" height="630" fill="url(#og-base-right)" />
  <path d="M-120 410C74 468 176 372 330 400C458 424 514 496 646 412C790 320 890 366 996 414C1080 452 1134 382 1320 420" stroke="url(#og-wave)" stroke-width="68" stroke-linecap="round" opacity="0.48" filter="url(#og-blur)" />
  <path d="M-140 430C96 486 204 390 352 420C470 446 542 496 662 430C804 350 896 368 1014 422C1102 462 1164 408 1328 446" stroke="#FF64C2" stroke-width="106" stroke-linecap="round" opacity="0.22" filter="url(#og-soft)" />
  <path d="M-100 404C86 450 186 374 326 396C462 418 524 476 648 402C788 320 896 358 1000 404C1086 442 1138 394 1310 418" stroke="#C9C1FF" stroke-width="6" stroke-linecap="round" opacity="0.32" />
  <rect width="1200" height="630" filter="url(#og-grain)" opacity="0.35" />

  <image href="logo.png" x="108" y="124" width="386" height="386" preserveAspectRatio="xMidYMid meet" filter="url(#og-logo-shadow)" />
  <text x="622" y="274" fill="#F6F6FF" font-size="82" font-weight="650" font-family="Inter, Public Sans, Arial, sans-serif">Exitpress</text>
  <text x="626" y="338" fill="#D4D7EC" font-size="31" font-weight="400" font-family="Inter, Public Sans, Arial, sans-serif">Every post deserves an exit.</text>
</svg>
